<?xml version="1.0" encoding="UTF-8"?>
<svg id="Layer_2" data-name="Layer 2" xmlns="http://www.w3.org/2000/svg" viewBox="0 0 330 330">
  <defs>
    <style>
      .cls-1 {
        fill: #231f20;
      }

      .cls-2 {
        fill: none;
      }

      .cls-2, .cls-3 {
        stroke: #afd9ae;
        stroke-miterlimit: 10;
        stroke-width: 5px;
      }

      .cls-3 {
        fill: #afd9ae;
      }
    </style>
  </defs>
  <g id="Layer_4" data-name="Layer 4">
    <rect class="cls-1" width="330" height="330" transform="translate(330) rotate(90)"/>
  </g>
  <g id="Layer_2-2" data-name="Layer 2">
    <path class="cls-2" d="M165.01,65.77c22.21,0,43.06,4.67,61.08,12.86l.36.16c1.75.79,2.26,2.95,1.18,4.53-1.06,1.54-1.67,3.4-1.67,5.4,0,3.75,2.16,6.99,5.31,8.56.37.18.75.34,1.15.48,33.57,14.06,55.91,38.33,56.45,65.99v.3c.01.19.01.37.01.56v.17c-.14,12.9-16.33,24.47-41.92,32.38-21.84,6.77-50.53,10.87-81.96,10.87-1.19,0-2.37-.01-3.55-.02-.86-.01-1.71-.02-2.56-.04-.89-.01-1.77-.02-2.65-.05-.97-.02-1.93-.05-2.89-.08-1.51-.05-3.01-.11-4.5-.17-.96-.05-1.91-.09-2.85-.15-2.25-.12-4.48-.26-6.69-.42-.03-.01-.06-.01-.08-.01-.92-.07-1.84-.14-2.76-.22-.56-.05-1.11-.09-1.66-.14-1.13-.1-2.25-.2-3.37-.31-7.12-.71-13.97-1.62-20.51-2.74-1.04-.17-2.07-.36-3.09-.54-.05-.01-.1-.02-.15-.03-18.41-3.37-32.15-19.13-32.39-37.82-.01-.11-.01-.22-.01-.33v-.35c0-11.6,2.77-22.62,7.77-32.56,13.05-26.01,41.27-44.67,74.65-47.06-11.68.17-33.09-.66-35.36-8.92-.32-1.16-.29-2.6.43-4.4,13.18-3.82,27.4-5.9,42.22-5.9"/>
    <path class="cls-3" d="M288.88,164.78c0,.34,0,.69-.01,1.03-.01.35-.02.69-.03,1.04-.42,10.69-4.1,20.86-10.42,30.11-.47.69-.96,1.39-1.47,2.07-2.76,4.21-4.47,9.16-4.78,14.48-.02.34-.03.68-.04,1.02-.02.26-.02.53-.02.8,0,6.46,2.05,12.45,5.54,17.34.84,1.18.18,2.83-1.24,3.11l-21.7,4.3s0,0-.01,0c-3.19-.21-12.69-1.71-12.69-1.71-.77-.1-1.43-.64-1.64-1.39-.56-1.96-1.33-3.84-2.26-5.62-.49-.94-1.62-1.33-2.59-.89-4.29,1.91-8.76,3.66-13.41,5.21-11.86,3.99-24.84,6.78-38.56,8.09-.05,0-.09,0-.13.01-.9.12-1.62.83-1.73,1.75-.01.07-.01.15-.01.23,0,.1.01.2.02.29.16,6,2.08,11.56,5.28,16.18l.12.18c.8,1.17.17,2.77-1.21,3.08l-20.45,4.58c-.29.06-.59.06-.87,0l-20.45-4.58c-1.38-.31-2.01-1.91-1.21-3.08l.12-.18c3.2-4.62,5.12-10.18,5.28-16.18.01-.09.02-.19.02-.29,0-.08,0-.16,0-.23-.11-.92-.83-1.63-1.73-1.75-.04-.01-.08-.01-.13-.01-13.72-1.31-26.7-4.1-38.56-8.09-4.65-1.55-9.12-3.3-13.41-5.21-.97-.44-2.1-.05-2.59.89-.93,1.78-1.69,3.66-2.26,5.62-.22.75-.87,1.29-1.64,1.39l-12.69,1.71h-.01l-21.7-4.3c-1.42-.28-2.08-1.93-1.24-3.11,3.49-4.89,5.54-10.88,5.54-17.34,0-.27,0-.54-.02-.8-.01-.34-.02-.67-.04-1.01-.31-5.32-2.02-10.27-4.78-14.49-.51-.68-1-1.38-1.47-2.07-6.32-9.25-10-19.42-10.42-30.11-.01-.35-.02-.69-.03-1.04-.01-.34-.01-.69-.01-1.03v-.17c0-.19,0-.37.01-.56v-.3c.54-27.66,22.88-51.93,56.45-65.99.4-.14.78-.3,1.15-.48,3.15-1.57,5.31-4.81,5.31-8.56,0-2-.61-3.86-1.67-5.4-1.08-1.58-.57-3.74,1.18-4.53l.36-.16c5.99-2.73,12.3-5.06,18.87-6.96-.72,1.8-.75,3.24-.43,4.4,2.27,8.26,23.68,9.09,35.36,8.92-33.38,2.39-61.6,21.05-74.65,47.06-5,9.94-7.77,20.96-7.77,32.56v.35c0,.11,0,.22.01.33.24,18.69,13.98,34.45,32.39,37.82.05,0,.1.02.15.03,1.02.18,2.05.37,3.09.54,6.54,1.12,13.39,2.03,20.51,2.74,1.12.11,2.24.21,3.37.31.55.05,1.1.09,1.66.14.92.08,1.84.15,2.76.22.02,0,.05,0,.08.01,2.21.16,4.44.3,6.69.42.94.06,1.89.1,2.85.15,1.49.06,2.99.12,4.5.17.96.03,1.92.06,2.89.08.88.03,1.76.04,2.65.05.85.02,1.7.03,2.56.04,1.18.01,2.36.02,3.55.02,31.43,0,60.12-4.1,81.96-10.87,25.59-7.91,41.78-19.48,41.92-32.38Z"/>
  </g>
</svg>